<?xml version="1.0" standalone="no"?>
<!DOCTYPE svg PUBLIC "-//W3C//DTD SVG 20010904//EN"
 "http://www.w3.org/TR/2001/REC-SVG-20010904/DTD/svg10.dtd">
<svg version="1.0" xmlns="http://www.w3.org/2000/svg"
 width="736.000000pt" height="736.000000pt" viewBox="0 0 736.000000 736.000000"
 preserveAspectRatio="xMidYMid meet">

<g transform="translate(0.000000,736.000000) scale(0.100000,-0.100000)"
fill="#000000" stroke="none">
<path d="M0 3680 l0 -3680 3680 0 3680 0 0 3680 0 3680 -3680 0 -3680 0 0
-3680z m3064 2094 c30 -12 24 -35 -25 -93 -34 -41 -66 -67 -102 -84 -58 -27
-165 -52 -175 -42 -8 8 46 55 86 76 15 8 34 22 43 31 9 10 21 18 27 18 6 0 14
5 18 12 14 21 -149 3 -461 -52 -139 -24 -338 -72 -400 -95 -38 -14 -120 -51
-181 -81 -61 -30 -115 -54 -121 -54 -5 0 -28 -18 -52 -40 -23 -22 -47 -40 -52
-40 -5 0 -9 -7 -9 -15 0 -8 -24 -63 -54 -122 -77 -153 -153 -340 -225 -548
-34 -99 -89 -252 -121 -340 -74 -202 -123 -358 -155 -490 -7 -33 -31 -132 -53
-220 -97 -394 -106 -448 -104 -600 3 -131 20 -277 42 -355 13 -46 13 -82 -3
-131 -9 -30 -16 -39 -29 -36 -10 3 -22 -1 -29 -9 -28 -34 -44 -17 -92 101 -50
123 -60 331 -23 470 9 33 39 155 66 270 46 189 87 348 197 750 45 166 164 531
215 659 59 150 282 601 305 617 11 8 23 25 26 39 8 27 137 128 222 173 82 43
196 84 322 116 192 49 520 112 628 121 98 8 241 5 269 -6z m1826 -30 c252 -39
511 -136 740 -277 197 -122 245 -161 238 -196 -5 -24 -36 -14 -98 30 -69 48
-197 127 -272 167 -213 115 -570 222 -740 222 -94 0 -123 -7 -107 -26 11 -13
122 -81 316 -193 40 -23 74 -45 77 -50 7 -10 -51 1 -121 25 -122 40 -400 201
-423 245 -39 73 118 94 390 53z m-843 -279 c467 -52 792 -130 1070 -256 23
-10 44 -19 47 -19 13 0 431 -214 453 -232 6 -5 10 -15 7 -22 -3 -7 2 -19 11
-26 8 -7 15 -17 15 -22 0 -21 -65 4 -159 61 -408 248 -819 374 -1439 441 -218
24 -400 25 -692 5 -255 -18 -308 -25 -505 -69 -206 -47 -651 -188 -680 -217
-5 -5 -16 -9 -25 -9 -15 0 -253 -117 -307 -151 -16 -10 -26 -10 -33 -3 -19 19
90 107 207 167 286 146 681 275 1028 334 183 31 787 42 1002 18z m1269 -285
c0 -11 -4 -20 -8 -20 -4 0 -8 2 -8 4 0 2 -3 11 -6 20 -4 10 -1 16 8 16 7 0 14
-9 14 -20z m-1106 -11 c252 -22 570 -95 570 -130 0 -18 -50 -20 -102 -6 -165
48 -461 87 -698 94 -274 8 -716 -27 -985 -78 -216 -41 -499 -125 -665 -199
-119 -53 -261 -103 -269 -94 -13 13 105 106 182 144 255 122 548 202 882 240
392 43 805 55 1085 29z m1773 -78 c29 -42 74 -129 152 -294 15 -32 30 -56 33
-52 3 3 -1 20 -10 38 -9 18 -26 57 -38 87 -12 30 -46 104 -76 163 -52 105 -61
146 -25 113 10 -9 32 -21 49 -27 18 -6 32 -17 32 -23 0 -7 9 -21 20 -31 11
-10 20 -22 20 -27 0 -5 15 -41 34 -81 35 -75 64 -142 66 -155 1 -4 5 -11 10
-17 4 -5 11 -26 15 -45 4 -19 11 -37 14 -40 17 -12 113 -335 136 -455 14 -71
62 -294 71 -330 15 -55 35 -165 54 -290 5 -33 12 -109 15 -170 4 -60 8 -112
10 -115 6 -10 20 -371 18 -454 -2 -43 -7 -84 -12 -90 -6 -7 -6 -27 -1 -51 13
-53 12 -115 0 -115 -5 0 -10 -8 -10 -19 0 -10 -9 -21 -21 -24 -11 -3 -25 -19
-32 -36 -6 -17 -15 -31 -19 -31 -18 0 -26 47 -37 220 -6 102 -16 239 -21 305
-6 66 -15 183 -20 260 -28 401 -71 646 -181 1025 -12 41 -37 129 -56 195 -44
153 -106 305 -192 470 -63 122 -81 184 -44 154 8 -7 29 -33 46 -58z m-593 49
c0 -5 -2 -10 -4 -10 -3 0 -8 5 -11 10 -3 6 -1 10 4 10 6 0 11 -4 11 -10z m55
-23 c4 5 5 3 1 -4 -3 -7 2 -14 14 -18 19 -6 29 -25 13 -25 -16 0 -73 46 -73
59 0 11 4 11 18 -2 10 -10 22 -14 27 -10z m-386 -187 c173 -58 303 -130 306
-168 2 -28 -10 -28 -65 2 -25 13 -110 49 -190 80 -174 69 -210 87 -210 103 0
22 63 15 159 -17z m-306 -914 c192 -37 358 -157 435 -316 76 -158 80 -420 7
-583 -22 -50 -95 -167 -95 -152 0 4 -15 -11 -34 -34 -18 -22 -36 -37 -40 -34
-3 4 -6 2 -6 -4 0 -12 -89 -73 -156 -106 -214 -107 -502 -56 -682 121 -75 73
-103 119 -146 232 -25 64 -29 92 -31 190 l-3 115 8 -115 c11 -164 58 -276 160
-379 303 -308 796 -193 941 219 33 92 32 266 0 360 -82 236 -290 390 -528 390
-221 0 -395 -105 -511 -307 -40 -70 -33 -35 14 63 26 55 55 92 129 168 58 57
118 107 148 123 119 61 244 77 390 49z m-1716 -21 c151 -48 260 -126 357 -255
97 -130 132 -246 124 -411 -9 -173 -59 -288 -175 -403 -70 -69 -175 -131 -250
-146 -21 -5 -63 -16 -93 -25 -36 -10 -96 -16 -172 -17 l-117 0 -84 41 c-47 22
-106 59 -133 81 -27 22 -54 40 -61 40 -6 0 -22 15 -34 33 -13 17 -27 34 -31
35 -4 2 -8 8 -8 13 0 5 -13 31 -30 57 -46 75 -36 75 14 1 85 -126 213 -213
358 -243 96 -20 138 -20 227 -1 272 57 470 316 446 585 -35 400 -454 632 -815
450 -85 -43 -190 -145 -233 -228 -57 -109 -70 -168 -65 -301 3 -106 3 -112 -8
-66 -37 155 5 359 103 503 95 138 244 245 378 270 100 19 218 14 302 -13z
m994 -476 c-5 -13 -10 -19 -10 -12 -1 15 10 45 15 40 3 -2 0 -15 -5 -28z
m1680 -892 c23 -21 23 -19 4 -62 -32 -78 -244 -232 -339 -246 -28 -5 -61 -11
-74 -15 -16 -5 -22 -3 -20 7 6 26 -79 15 -157 -21 -11 -5 -45 -16 -75 -26 -30
-9 -60 -21 -67 -26 -7 -5 -17 -7 -24 -3 -6 4 -21 3 -32 -3 -18 -9 -109 -37
-152 -47 -40 -9 -72 -19 -80 -25 -13 -9 -71 -27 -110 -34 -16 -3 -70 -12 -120
-20 -155 -27 -420 -47 -695 -53 -231 -5 -289 -3 -455 16 -304 35 -399 53 -610
116 -60 18 -146 43 -190 55 -252 69 -525 191 -603 270 -94 95 -106 110 -85
110 51 -1 142 -34 268 -98 77 -39 154 -76 170 -82 565 -222 1098 -302 1690
-255 510 41 767 86 1053 181 230 77 455 181 590 272 74 50 86 54 90 28 2 -12
12 -29 23 -39z m754 -334 c-13 -56 -72 -139 -160 -228 -106 -105 -146 -134
-348 -246 -200 -112 -674 -254 -701 -210 -11 17 20 41 64 50 73 14 359 99 445
133 182 71 355 173 466 276 34 31 97 100 141 154 44 54 85 98 90 98 6 0 7 -11
3 -27z m-1065 -25 c-1 -7 -22 -30 -48 -51 -64 -51 -146 -120 -226 -191 -67
-59 -96 -67 -96 -27 0 30 184 188 277 238 85 46 93 49 93 31z m-4270 -176 c82
-85 182 -175 230 -209 190 -135 440 -235 675 -268 176 -26 230 -39 230 -55 0
-22 -119 -24 -239 -4 -428 72 -833 299 -1011 567 -34 51 -56 117 -39 117 4 0
74 -67 154 -148z m1089 48 c43 -36 101 -83 129 -105 54 -40 63 -59 36 -69 -16
-6 -120 68 -234 169 -83 73 -94 86 -78 96 16 10 56 -14 147 -91z m401 -175
c19 -23 5 -80 -34 -140 -20 -29 -36 -56 -36 -60 0 -11 -133 -136 -138 -130
-12 11 170 345 188 345 4 0 13 -7 20 -15z m2400 -47 c8 -25 22 -54 31 -65 9
-10 30 -39 48 -65 33 -50 33 -68 -3 -97 -13 -11 -22 -4 -58 44 -24 32 -60 78
-81 102 -21 25 -36 51 -33 59 3 7 0 15 -7 18 -7 3 -1 3 12 0 16 -4 21 -3 16 6
-9 15 24 52 44 48 9 -2 23 -24 31 -50z m-125 -35 c27 -27 103 -127 159 -210
28 -42 31 -73 9 -80 -19 -7 -223 270 -223 303 0 22 25 16 55 -13z m250 -203
c19 -8 19 -9 -2 -9 -12 -1 -25 4 -28 9 -7 12 2 12 30 0z m88 -67 c-7 -2 -19
-2 -25 0 -7 3 -2 5 12 5 14 0 19 -2 13 -5z"/>
</g>
</svg>
